<?xml version="1.0" encoding="iso-8859-1"?>
<!-- Generator: Adobe Illustrator 19.0.0, SVG Export Plug-In . SVG Version: 6.00 Build 0)  -->
<svg version="1.1" id="Layer_1" xmlns="http://www.w3.org/2000/svg" xmlns:xlink="http://www.w3.org/1999/xlink" x="0px" y="0px"
	 viewBox="0 0 295.328 295.328" style="enable-background:new 0 0 295.328 295.328;" xml:space="preserve">
<g>
	<g>
		<circle style="fill:#F9BA48;" cx="147.665" cy="147.655" r="98.399"/>
		<path style="fill:#333333;" d="M274.178,147.655c0-6.279,10.472-24.248,17.909-35.002l3.233-4.681l-5.21-2.277
			c-12.782-5.59-32.186-15.899-35.302-21.296c-3.069-5.318-1.513-26.062,0.567-39.088l0.881-5.529l-5.595,0.103
			c-12.225,0.211-33.891-0.684-39.739-4.058c-5.791-3.346-16.217-20.715-21.423-30.879l-2.441-4.761l-4.395,3.041
			c-10.749,7.441-28.718,17.913-34.997,17.913c-6.283,0-24.248-10.472-35.002-17.909L107.983,0l-2.277,5.21
			c-5.595,12.787-15.903,32.191-21.296,35.307c-5.323,3.078-25.968,1.621-38.928-0.389l-6.335-0.984l0.984,6.335
			c2.015,12.956,3.463,33.601,0.389,38.929c-3.113,5.393-22.521,15.701-35.303,21.296l-5.21,2.282l3.233,4.676
			c7.436,10.749,17.909,28.714,17.909,35.002c0,6.279-10.472,24.248-17.909,34.997l-3.233,4.676l5.206,2.282
			C18,195.218,37.408,205.527,40.519,210.92c3.074,5.323,1.626,25.968-0.389,38.929l-0.984,6.34l6.34-0.984
			c12.951-2.02,33.592-3.481,38.924-0.394c5.393,3.116,15.702,22.519,21.296,35.307l2.277,5.21l4.681-3.233
			c10.754-7.436,28.718-17.909,35.002-17.909c6.279,0,24.248,10.472,34.997,17.909l4.681,3.233l2.277-5.21
			c5.595-12.787,15.908-32.191,21.301-35.307c5.318-3.078,26.066-1.518,39.088,0.567l6.391,1.021l-1.026-6.391
			c-2.08-13.026-3.636-33.77-0.567-39.088c3.111-5.393,22.519-15.702,35.307-21.301l5.206-2.282l-3.233-4.676
			C284.651,171.903,274.178,153.934,274.178,147.655z M268.724,134.127c-1.303-11.742-4.269-22.993-8.682-33.498
			c7.258,4.578,15.669,8.748,21.217,11.339C277.702,117.414,272.351,126.091,268.724,134.127z M147.665,260.111
			c-62.005,0-112.456-50.451-112.456-112.456S85.66,35.199,147.665,35.199S260.121,85.65,260.121,147.655
			S209.671,260.111,147.665,260.111z M243.722,72.853c-7.741-9.915-16.962-18.621-27.36-25.743
			c9.493,1.752,21.826,2.123,28.971,2.169C244.546,55.258,243.581,64.465,243.722,72.853z M183.637,13.87
			c3.285,5.988,9.221,16.161,15.205,23.264c-11.672-5.426-24.333-9.062-37.645-10.543C169.379,22.904,178.216,17.426,183.637,13.87z
			 M111.984,14.062c5.44,3.556,14.118,8.907,22.159,12.534c-11.747,1.303-22.993,4.269-33.498,8.683
			C105.223,28.02,109.393,19.605,111.984,14.062z M72.812,51.641c-7.891,6.162-14.999,13.27-21.16,21.161
			c0.155-7.956-0.67-16.639-1.396-22.562C56.173,50.971,64.856,51.795,72.812,51.641z M14.068,111.973
			c5.548-2.591,13.959-6.761,21.217-11.339c-4.409,10.501-7.375,21.751-8.683,33.498C22.98,126.091,17.629,117.414,14.068,111.973z
			 M26.607,161.182c1.303,11.747,4.269,22.993,8.683,33.498c-7.258-4.583-15.674-8.753-21.217-11.344
			C17.629,177.896,22.98,169.218,26.607,161.182z M50.255,245.075c0.731-5.923,1.551-14.605,1.396-22.562
			c6.162,7.886,13.27,14.994,21.16,21.161C64.851,243.514,56.173,244.339,50.255,245.075z M111.984,281.248
			c-2.591-5.548-6.761-13.959-11.339-21.217c10.501,4.409,21.751,7.375,33.498,8.683
			C126.097,272.341,117.424,277.692,111.984,281.248z M183.347,281.248c-5.44-3.556-14.118-8.907-22.159-12.534
			c11.747-1.303,22.997-4.269,33.498-8.683C190.108,267.289,185.938,275.705,183.347,281.248z M222.463,243.711
			c7.928-6.19,15.074-13.331,21.259-21.264c-0.131,8.017,0.736,16.784,1.504,22.763C239.247,244.451,230.48,243.58,222.463,243.711z
			 M260.042,194.68c4.409-10.505,7.38-21.751,8.682-33.498c3.627,8.041,8.978,16.714,12.539,22.154
			C275.715,185.927,267.3,190.098,260.042,194.68z"/>
		<rect x="53.952" y="175.769" style="fill:#333333;" width="9.371" height="9.371"/>
		<rect x="68.009" y="194.512" style="fill:#333333;" width="9.371" height="9.371"/>
		<rect x="82.066" y="213.254" style="fill:#333333;" width="9.371" height="9.371"/>
		<rect x="100.809" y="227.311" style="fill:#333333;" width="9.371" height="9.371"/>
	</g>
</g>
<g>
</g>
<g>
</g>
<g>
</g>
<g>
</g>
<g>
</g>
<g>
</g>
<g>
</g>
<g>
</g>
<g>
</g>
<g>
</g>
<g>
</g>
<g>
</g>
<g>
</g>
<g>
</g>
<g>
</g>
</svg>
