<?xml version="1.0"?>
<svg xmlns="http://www.w3.org/2000/svg" xmlns:xlink="http://www.w3.org/1999/xlink" xmlns:svgjs="http://svgjs.com/svgjs" version="1.1" width="512" height="512" x="0" y="0" viewBox="0 0 281.139 281.139" style="enable-background:new 0 0 512 512" xml:space="preserve" class=""><g>
<g xmlns="http://www.w3.org/2000/svg">
	<g>
		<path style="" d="M274.111,201.483c-18.935,12.122-41.449,18.743-65.599,18.743    c-67.281,0-121.827-54.546-121.827-121.827c0-41.107,20.359-76.339,51.542-98.399C64.961,4.821,7.028,66.086,7.028,140.569    c0,77.632,62.938,140.57,140.57,140.57C203.409,281.139,251.413,248.616,274.111,201.483z" fill="#fdfdfd" data-original="#f9ba48" class=""/>
		<path style="" d="M108.842,257.851c-5.032-1.41-9.966-3.168-14.666-5.22l3.758-8.584    c4.297,1.879,8.818,3.486,13.434,4.784L108.842,257.851z" fill="#333333" data-original="#333333" class=""/>
		<path style="" d="M84.449,247.473c-39.083-21.414-63.364-62.376-63.364-106.904h9.371    c0,41.103,22.416,78.921,58.496,98.69L84.449,247.473z" fill="#333333" data-original="#333333" class=""/>
	</g>
</g>
<g xmlns="http://www.w3.org/2000/svg">
</g>
<g xmlns="http://www.w3.org/2000/svg">
</g>
<g xmlns="http://www.w3.org/2000/svg">
</g>
<g xmlns="http://www.w3.org/2000/svg">
</g>
<g xmlns="http://www.w3.org/2000/svg">
</g>
<g xmlns="http://www.w3.org/2000/svg">
</g>
<g xmlns="http://www.w3.org/2000/svg">
</g>
<g xmlns="http://www.w3.org/2000/svg">
</g>
<g xmlns="http://www.w3.org/2000/svg">
</g>
<g xmlns="http://www.w3.org/2000/svg">
</g>
<g xmlns="http://www.w3.org/2000/svg">
</g>
<g xmlns="http://www.w3.org/2000/svg">
</g>
<g xmlns="http://www.w3.org/2000/svg">
</g>
<g xmlns="http://www.w3.org/2000/svg">
</g>
<g xmlns="http://www.w3.org/2000/svg">
</g>
</g></svg>
